<?xml version="1.0" encoding="UTF-8" standalone="no"?>
<!-- Created with Inkscape (http://www.inkscape.org/) -->

<svg
   version="1.1"
   id="svg1"
   width="703.1452"
   height="722.48077"
   viewBox="0 0 703.1452 722.48077"
   xmlns="http://www.w3.org/2000/svg"
   xmlns:svg="http://www.w3.org/2000/svg">
  <defs
     id="defs1" />
  <g
     id="g1"
     transform="translate(-98.256981,-88.641838)">
    <g
       id="g2">
      <path
         style="fill:#ffffff;fill-opacity:1;stroke:none;stroke-width:1.222;stroke-dasharray:none;stroke-opacity:1"
         d="m 588.72872,810.45798 c -8.88134,-0.93855 -22.64124,-3.04373 -26.88282,-4.11289 -1.34414,-0.33882 -6.29302,-1.50623 -10.99751,-2.59425 -16.75125,-3.87411 -37.52938,-10.62772 -52.54369,-17.07852 -14.55856,-6.25498 -36.643,-17.00441 -46.43395,-22.60136 -2.68829,-1.53674 -7.36223,-4.16962 -10.38655,-5.85086 -3.02431,-1.68123 -6.95833,-4.07793 -8.74225,-5.32599 -1.78392,-1.24807 -3.54837,-2.26921 -3.92099,-2.26921 -0.37264,0 -6.65851,-3.84973 -13.96862,-8.55495 l -13.29111,-8.55494 -9.6707,2.57071 c -32.81676,8.72349 -57.94812,12.04738 -86.65333,11.46083 -11.42519,-0.23347 -22.14777,-0.65546 -23.82795,-0.93776 -1.68017,-0.28231 -6.07918,-0.90037 -9.77556,-1.37348 -8.30429,-1.06289 -19.1517,-3.10585 -23.21698,-4.3726 -1.68018,-0.52355 -5.52931,-1.62241 -8.55363,-2.44192 -6.26766,-1.69838 -15.33338,-4.61595 -18.94016,-6.09541 -16.07986,-6.59574 -26.13772,-11.63191 -37.59101,-18.8225 -34.72478,-21.80089 -60.93942,-52.27818 -73.69957,-85.68357 -12.258981,-32.09333 -14.756725,-72.40223 -6.77677,-109.36419 2.13714,-9.89887 6.77651,-25.32802 9.55308,-31.7706 19.1,-44.31852 43.78982,-75.58399 84.07535,-106.46709 27.32536,-20.94778 66.67125,-41.14897 104.47639,-53.64087 11.09378,-3.66571 38.13705,-11.30558 45.21201,-12.77264 2.35225,-0.48776 6.47632,-1.40525 9.1646,-2.03885 12.35352,-2.91162 45.13392,-8.49401 63.5412,-10.82084 8.36728,-1.05769 29.36306,-3.55993 34.21449,-4.07763 2.88764,-0.30814 7.01275,-2.49423 9.6128,-5.09428 1.02339,-1.0234 5.87768,-4.21608 10.78731,-7.09488 24.81653,-14.55131 42.59648,-19.76546 75.73223,-22.2092 17.59756,-1.29781 40.36966,-10.86881 51.33761,-21.57697 12.55599,-12.25856 19.3966,-32.35424 17.60358,-51.71404 -1.94718,-21.02426 -15.42063,-35.40525 -44.04973,-47.01679 -4.96173,-2.01241 -33.845,-11.51782 -42.81924,-14.0917 -4.03243,-1.15653 -8.43143,-2.56355 -9.77557,-3.12669 -1.34414,-0.56315 -6.8429,-2.46688 -12.21946,-4.23052 -23.63259,-7.752 -35.68111,-15.31532 -39.64594,-24.887264 -1.43379,-3.461492 -1.39986,-4.241448 0.25661,-5.897931 1.51691,-1.516899 2.62066,-1.644874 5.37479,-0.62318 24.41138,9.055831 32.09355,10.532895 71.28389,13.705945 53.33397,4.31819 69.44138,8.38483 92.28964,23.30033 22.25344,14.52719 36.48481,34.96006 44.18709,63.44217 2.25692,8.34583 2.49997,34.97407 0.40307,44.16073 -4.30121,18.84392 -16.06709,41.55506 -26.77634,51.68517 -2.08677,1.97394 -3.77487,4.17344 -3.75131,4.88779 0.0236,0.71435 4.41421,3.38213 9.757,5.92841 11.48612,5.47406 23.05957,15.62753 26.93261,23.62813 1.65583,3.4205 3.90812,6.0164 5.88632,6.78432 12.96911,5.03453 20.10008,10.75578 26.35708,21.14656 3.9001,6.47676 4.34093,8.09916 4.34093,15.97609 v 8.76727 l 7.23218,2.63699 c 16.02907,5.84448 29.96779,23.9177 34.78679,45.10518 2.54667,11.19687 2.46372,20.30612 -0.30472,33.46516 -2.54121,12.07896 -4.68923,16.02096 -10.64457,19.53469 -2.30277,1.35867 -4.18686,3.38066 -4.18686,4.49332 0,3.80031 -5.95893,18.45991 -9.87494,24.29338 -2.15023,3.20308 -6.38186,8.39335 -9.40361,11.53392 -3.35208,3.4839 -5.224,6.41394 -4.80134,7.51536 0.381,0.99288 3.8221,3.8824 7.64689,6.42114 10.2162,6.78115 26.0962,22.30435 35.25358,34.46153 7.7947,10.34811 18.40508,30.0545 21.52707,39.9817 0.84544,2.68828 1.93735,5.98753 2.42648,7.33167 2.60237,7.15143 3.93475,15.70336 5.42575,34.82547 0.65601,8.41333 -1.46023,34.15079 -3.42176,41.61504 -3.7552,14.28973 -10.17889,30.13517 -16.07171,39.64438 -1.66592,2.68828 -3.40465,5.7126 -3.86384,6.7207 -3.2002,7.02563 -26.59129,31.59595 -38.89495,40.85579 -20.39042,15.34599 -43.41562,26.0258 -69.65094,32.30627 -6.04863,1.44799 -13.47195,3.2366 -16.49627,3.97468 -6.52211,1.59173 -51.92612,2.31756 -64.15217,1.02554 z m 47.8034,-7.96573 c 28.38829,-2.96393 46.17054,-7.88819 67.71748,-18.75233 34.07865,-17.18273 59.01981,-40.78173 73.19828,-69.25931 2.98497,-5.99536 5.79826,-12.00039 6.25172,-13.34453 0.45348,-1.34414 1.39196,-3.81859 2.08553,-5.49876 6.08307,-14.73621 9.33004,-46.23406 6.32013,-61.30957 -6.01473,-30.12554 -11.52323,-44.49678 -24.27401,-63.32894 -6.04229,-8.92411 -29.74888,-32.99255 -32.49653,-32.99255 -0.98133,0 -4.30556,-1.92456 -7.38716,-4.27681 -6.61001,-5.04553 -11.78571,-6.07395 -6.14214,-1.22045 4.7712,4.10325 3.55747,3.84403 -4.3794,-0.93529 -10.18335,-6.1321 -30.12387,-11.85801 -38.06644,-10.93077 -6.75719,0.78887 -4.17867,2.51476 2.83859,1.89996 3.36554,-0.29486 6.11916,-0.0247 6.11916,0.6004 0,1.42171 -4.26578,2.60495 -9.47008,2.62682 -2.18423,0.01 -3.97133,0.50773 -3.97133,1.10789 0,1.40249 3.07238,2.57463 6.74853,2.57463 1.58555,0 3.22265,0.54987 3.63801,1.22195 0.41537,0.67207 2.09745,1.22194 3.73796,1.22194 1.64051,0 2.98275,0.54988 2.98275,1.22195 0,0.67207 -0.82947,1.22194 -1.84327,1.22194 -1.53739,0 -1.59001,0.40556 -0.31705,2.4439 0.83943,1.34414 2.49373,2.44389 3.6762,2.44389 1.18248,0 2.14996,0.54987 2.14996,1.22194 0,0.67207 0.58004,1.22195 1.28899,1.22195 2.82524,0 15.68257,9.94553 23.30991,18.03092 16.60875,17.60615 25.07503,33.86817 29.27901,56.2391 1.75533,9.34071 0.74279,33.66884 -1.76576,42.42584 -9.91003,34.59459 -32.52416,55.4363 -67.73101,62.42249 -7.9637,1.58025 -14.36361,1.91609 -27.507,1.44342 l -17.1286,-0.616 -12.55105,5.94989 c -13.1385,6.22837 -18.71788,7.78563 -11.62235,3.2439 5.98182,-3.82886 2.85151,-4.03947 -6.0825,-0.40926 -10.36477,4.21158 -14.43724,4.19116 -7.85631,-0.0393 2.68828,-1.72816 3.78803,-2.76547 2.44389,-2.30512 -6.46778,2.21514 -10.66302,3.11771 -11.98681,2.5789 -0.80002,-0.32563 -0.35484,-0.6477 0.9893,-0.7157 1.34414,-0.0679 3.81858,-1.19893 5.49875,-2.51319 1.68018,-1.31425 3.74222,-2.40177 4.5823,-2.41671 0.84009,-0.015 1.52744,-0.57708 1.52744,-1.24915 0,-1.50118 -3.27264,-1.62478 -4.17927,-0.15783 -0.36172,0.58527 -2.18127,1.40549 -4.04344,1.82271 -1.86219,0.41722 -7.23491,1.84692 -11.93941,3.17711 -9.42344,2.66447 -15.94532,3.14778 -17.10724,1.26774 -0.41537,-0.67207 -2.78479,-1.24143 -5.26539,-1.26525 -2.4806,-0.0238 -5.88487,-0.82914 -7.56505,-1.78961 -1.68017,-0.96048 -5.25437,-1.77025 -7.94265,-1.79948 -7.94631,-0.0864 -31.23817,-3.47091 -38.4913,-5.59307 -16.62073,-4.863 -18.13322,-5.43629 -32.14805,-12.18533 -10.09852,-4.86308 -30.78818,-17.57548 -36.8223,-22.62482 -22.78109,-19.06319 -36.54358,-33.76013 -48.58812,-51.88716 -18.31424,-27.56296 -28.28548,-57.16082 -31.60585,-93.8164 -1.29906,-14.34115 -0.15914,-36.05883 2.51571,-47.92936 0.60577,-2.68828 2.00086,-9.01185 3.10021,-14.05238 2.22535,-10.20321 2.59468,-11.41236 7.46479,-24.43892 7.6094,-20.35359 20.85032,-41.02395 34.87397,-54.44164 8.25618,-7.89943 25.95284,-22.54097 27.24441,-22.54097 0.42796,0 2.80115,-1.37469 5.27376,-3.05486 2.47259,-1.68018 5.46774,-3.05487 6.65586,-3.05487 1.18814,0 2.16025,-0.48575 2.16025,-1.07943 0,-0.59368 1.22902,-1.40083 2.73116,-1.79365 2.69968,-0.70598 2.70321,-0.73533 0.30548,-2.54753 -3.37494,-2.5508 -6.33895,-2.58484 -4.23408,-0.0486 2.16051,2.60326 0.45113,3.82155 -2.15543,1.53618 -1.94882,-1.70868 -2.92576,-1.56202 -10.63746,1.59698 -4.67037,1.91315 -8.69113,3.27891 -8.93502,3.03501 -0.62246,-0.62246 20.18463,-10.85257 25.36924,-12.47317 4.49743,-1.40578 11.56374,-3.36469 17.71822,-4.91178 l 3.66584,-0.92151 -4.27682,-0.39822 c -2.35224,-0.21902 -5.47435,-1.00296 -6.93802,-1.74209 -1.46367,-0.73913 -4.07558,-0.99724 -5.80425,-0.57359 -1.72866,0.42365 -4.51772,1.10932 -6.19789,1.5237 -1.88441,0.46476 -3.05487,0.23067 -3.05487,-0.61097 0,-0.75042 1.26472,-1.3644 2.81048,-1.3644 1.54576,0 3.33286,-0.47414 3.97132,-1.05363 1.48309,-1.34611 16.58796,-5.05608 20.58552,-5.05608 1.67041,0 3.42807,-0.6326 3.90593,-1.40577 0.64248,-1.03956 -1.80575,-1.20491 -9.39798,-0.63472 -5.64672,0.42409 -11.91641,1.12561 -13.93262,1.55893 -5.85056,1.25739 -2.06615,-1.29012 5.33359,-3.59036 3.60555,-1.1208 8.27949,-2.07965 10.38654,-2.13077 4.61913,-0.11205 12.71532,-2.87276 11.09518,-3.78328 -1.76579,-0.99239 -21.07988,1.06304 -28.67159,3.05126 -3.70923,0.97142 -10.82903,3.18683 -15.82177,4.92313 -4.99274,1.73632 -9.26197,2.97266 -9.48719,2.74745 -0.65434,-0.65435 11.87871,-6.45059 19.22259,-8.89 5.36591,-1.78239 6.09039,-2.30581 3.59389,-2.59652 -1.71974,-0.20027 -5.56887,0.24987 -8.55362,1.00029 -2.98475,0.75044 -8.40299,1.57627 -12.04056,1.83518 -3.63756,0.25891 -6.98077,1.06462 -7.42937,1.79046 -0.44897,0.72645 -1.82312,0.9331 -3.05678,0.4597 -1.61572,-0.62001 -1.97745,-0.43331 -1.29617,0.66902 0.64549,1.04444 0.22492,1.42198 -1.32698,1.19123 -5.84631,-0.86927 -31.48609,16.61885 -50.36649,34.35343 -6.02868,5.66282 -16.94168,18.89024 -21.50266,26.06293 -8.48579,13.34496 -19.75851,43.57359 -25.02651,67.11046 -0.7145,3.19234 -1.81894,8.14122 -2.45429,10.99752 -6.50517,29.24457 -3.5886,82.57351 6.66616,121.88913 1.13943,4.36846 2.21098,9.89216 2.38122,12.27488 0.49266,6.89549 13.1366,31.8152 25.643,50.53931 21.85286,32.71731 43.8076,54.17825 77.05094,75.31791 12.97182,8.24885 39.9041,23.76232 47.04493,27.09869 20.28862,9.47934 28.92994,13.29854 37.88033,16.74195 11.37137,4.37482 13.7415,5.2948 18.37618,7.13279 5.32559,2.112 29.45417,8.67038 39.17981,10.64946 8.75304,1.78117 37.97806,5.08648 47.67888,5.39243 2.43338,0.0767 12.60608,-0.71469 22.60601,-1.75874 z m -80.49046,-69.78387 c 0.84008,-0.33898 2.21477,-0.33898 3.05486,0 0.84009,0.33898 0.15275,0.61634 -1.52743,0.61634 -1.68018,0 -2.36752,-0.27736 -1.52743,-0.61634 z M 436.3673,367.32102 c 0.88209,-0.35298 1.93603,-0.30958 2.34207,0.0964 0.40604,0.40604 -0.31568,0.69485 -1.6038,0.64179 -1.42351,-0.0587 -1.71305,-0.34818 -0.73827,-0.73825 z m 14.89247,-15.05058 c -1.48217,-0.95784 -1.3068,-1.18809 0.91646,-1.20323 1.51216,-0.01 2.74938,0.53116 2.74938,1.20323 0,1.531 -1.29678,1.531 -3.66584,0 z M 335.65314,737.49888 c 0.6469,-0.3998 4.51558,-1.08854 8.59709,-1.53054 6.74451,-0.73037 7.14248,-0.92733 4.36606,-2.16067 -2.78982,-1.23933 -2.55129,-1.36378 2.74938,-1.43451 3.19234,-0.0426 5.80425,-0.62733 5.80425,-1.2994 0,-0.67207 1.61717,-1.22195 3.59372,-1.22195 1.97654,0 3.97286,-0.61345 4.43625,-1.36324 0.60372,-0.97683 -1.88691,-1.19795 -8.78699,-0.78009 -5.29624,0.32073 -7.9799,0.34512 -5.96369,0.0541 2.01621,-0.29093 4.18822,-1.03964 4.82669,-1.6638 0.63847,-0.62414 2.39311,-1.13482 3.89921,-1.13482 1.50609,0 3.11817,-0.61454 3.58238,-1.36563 0.59231,-0.95839 -0.57051,-1.15594 -3.89922,-0.66243 -21.77056,3.22764 -48.85066,5.03722 -49.90289,3.33469 -0.66905,-1.08255 3.83255,-1.959 16.71917,-3.25521 13.21058,-1.3288 8.55499,-3.3118 -5.83392,-2.4849 -12.14228,0.69778 -30.98741,-0.80814 -34.46464,-2.75409 -0.92835,-0.51954 4.53533,-0.78917 12.14152,-0.5992 10.63687,0.26568 12.70107,0.0826 8.94164,-0.79304 -4.73348,-1.10252 -15.61378,-3.00242 -25.66087,-4.48085 -3.87211,-0.56978 -4.37994,-0.9038 -2.44389,-1.6074 1.34414,-0.4885 3.58169,-0.46375 4.97233,0.055 4.62637,1.72575 36.90709,2.43525 49.09627,1.0791 11.55349,-1.28543 24.3622,-4.00318 25.84223,-5.4832 0.39894,-0.39896 -4.77064,-0.42463 -11.48797,-0.0571 l -12.21334,0.66831 8.85911,-2.02947 c 9.08378,-2.08094 12.60004,-4.97705 4.27681,-3.52253 -9.10381,1.59094 -29.63219,2.35946 -29.63219,1.10935 0,-0.67197 5.08635,-1.57392 11.303,-2.00434 10.71197,-0.74165 23.45459,-3.34568 25.1763,-5.14492 0.43453,-0.4541 -2.5092,-0.46564 -6.54162,-0.0257 -12.67025,1.3825 -36.04741,1.76482 -36.04741,0.58954 0,-0.6131 1.09975,-1.11472 2.44389,-1.11472 1.34414,0 2.44389,-0.54987 2.44389,-1.22194 0,-0.67208 -3.16178,-1.23867 -7.02619,-1.25911 -13.70219,-0.0725 -3.42084,-2.09224 14.35787,-2.82061 15.46166,-0.63343 24.39673,-1.78133 30.35358,-3.89954 1.14147,-0.4059 0.12307,-2.39167 -3.36035,-6.55221 -2.74901,-3.2834 -4.9982,-6.26702 -4.9982,-6.63028 0,-0.36325 -2.15598,-3.90635 -4.79105,-7.87354 -8.18495,-12.32268 -20.45552,-35.38282 -24.52978,-46.09895 -1.13511,-2.98558 -1.72254,-3.27687 -5.20405,-2.58056 -26.06687,5.21337 -55.79771,3.25453 -76.20236,-5.02068 -30.49663,-12.36806 -48.18005,-30.99475 -58.9221,-62.06515 -5.97397,-17.2792 -5.16004,-43.6763 2.03457,-65.98509 7.86489,-24.38709 29.61801,-53.55863 54.99083,-73.74422 16.70929,-13.29323 30.39835,-21.73742 54.5815,-33.66898 19.47276,-9.60753 47.20835,-21.80195 57.43147,-25.25073 2.68828,-0.9069 5.43766,-2.00651 6.10973,-2.44359 3.12184,-2.03026 59.99467,-19.87623 70.25974,-22.0466 5.73396,-1.21235 6.3116,-1.57107 3.94161,-2.44779 -2.60792,-0.96473 -9.16681,-0.0863 -19.96652,2.67433 -5.70051,1.45712 -9.25801,1.46912 -7.73978,0.0261 0.63847,-0.60683 2.2606,-1.40282 3.60474,-1.76884 6.48476,-1.76592 -12.22606,0.93092 -20.63547,2.97425 -10.58658,2.57232 -14.1053,2.93739 -12.29598,1.2757 1.11692,-1.02579 19.81733,-5.85433 33.33016,-8.60603 3.57964,-0.72895 9.76575,-1.32536 13.7469,-1.32536 4.51378,0 7.23845,-0.51346 7.23845,-1.36407 0,-0.94591 -3.74591,-1.21361 -12.21946,-0.87327 -6.72071,0.26994 -12.21946,0.0694 -12.21946,-0.44557 0,-1.88743 -6.23519,-2.42269 -12.50337,-1.07334 -3.54024,0.7621 -9.46112,1.97799 -13.1575,2.70198 -21.69866,4.24996 -56.47266,12.93688 -70.26191,17.55216 -15.2126,5.09169 -31.76802,11.98508 -48.26687,20.09749 -50.1222,24.6449 -96.68886,65.87596 -119.4476,105.76136 -4.88649,8.56372 -14.96648,29.93284 -14.96648,31.72825 0,0.95207 -0.48422,2.0303 -1.07605,2.39608 -0.59182,0.36576 -1.36143,1.91036 -1.71024,3.43245 -0.34882,1.5221 -2.03608,7.99126 -3.74947,14.37593 -14.80052,55.15144 -5.14003,110.78597 26.09115,150.25835 7.60278,9.60897 27.24813,28.69271 36.65413,35.60628 31.17054,22.91084 65.97574,35.82878 108.14224,40.13693 9.44454,0.96496 49.32454,0.30424 51.18902,-0.84807 z m 56.7241,-409.28014 c 0.88209,-0.35298 1.93603,-0.30958 2.34207,0.0964 0.40604,0.40604 -0.31568,0.69485 -1.60381,0.6418 -1.4235,-0.0587 -1.71304,-0.34819 -0.73826,-0.73826 z M 388.94052,316.834 c 0,-0.67207 1.68208,-1.22194 3.73796,-1.22194 2.1808,0 3.42335,0.50904 2.98274,1.22194 -0.41536,0.67208 -2.09744,1.22195 -3.73796,1.22195 -1.64051,0 -2.98274,-0.54987 -2.98274,-1.22195 z m 181.76449,410.95354 c -1.17612,-0.30734 -3.10069,-0.30734 -4.27681,0 -1.17612,0.30736 -0.21384,0.55883 2.13841,0.55883 2.35224,0 3.31452,-0.25147 2.1384,-0.55883 z m -200.70466,-1.60157 c 0.41537,-0.67207 -0.10203,-1.22194 -1.14982,-1.22194 -1.04777,0 -1.90504,0.54987 -1.90504,1.22194 0,0.67207 0.51742,1.22195 1.14982,1.22195 0.63241,0 1.48968,-0.54988 1.90504,-1.22195 z m 187.56874,-1.7608 c 0,-0.29637 -0.54988,-0.8787 -1.22195,-1.29406 -0.67207,-0.41537 -1.22194,-0.17288 -1.22194,0.53885 0,0.71174 0.54987,1.29407 1.22194,1.29407 0.67207,0 1.22195,-0.24249 1.22195,-0.53886 z m -189.7326,-2.6433 c -0.40604,-0.40604 -1.45998,-0.44944 -2.34206,-0.0964 -0.97479,0.39007 -0.68525,0.67962 0.73826,0.73825 1.28813,0.053 2.00984,-0.23575 1.6038,-0.64179 z m 171.69474,-10.28214 c 1.84041,-3.6838 3.12925,-7.65955 2.8641,-8.835 -0.26516,-1.17546 0.004,-2.43722 0.59669,-2.80393 1.20314,-0.74357 0.68994,-13.81441 -0.76553,-19.49781 -0.93584,-3.65431 -11.08216,-16.49627 -13.03357,-16.49627 -0.56498,0 -1.33807,0.96228 -1.71797,2.1384 -2.07257,6.41639 -6.30191,13.33345 -13.89592,22.72672 -3.42979,4.24241 -14.85457,14.84015 -18.46389,17.1273 -2.56791,1.62722 -3.24825,2.69907 -2.37845,3.74713 1.95491,2.35552 32.50704,9.07891 39.7825,8.75465 3.16201,-0.14092 4.12575,-1.08392 7.01204,-6.86119 z m 39.81348,2.99845 c 14.93933,-2.48753 15.9701,-2.90321 12.27677,-4.95093 -1.59102,-0.88213 -3.85505,-1.62336 -5.03117,-1.64716 -1.17612,-0.0238 -2.1384,-0.59319 -2.1384,-1.26526 0,-0.67207 -1.05393,-1.22194 -2.34207,-1.22194 -1.28813,0 -2.52535,-0.41241 -2.74938,-0.91646 -0.22402,-0.50405 -3.28284,-2.42469 -6.79738,-4.26806 -3.51455,-1.8434 -9.64893,-5.82999 -13.63197,-8.85911 -3.98303,-3.02914 -7.62974,-5.50751 -8.10378,-5.50751 -0.47405,0 -0.4899,1.98291 -0.0352,4.40646 0.83598,4.45619 -0.67797,13.10508 -3.78808,21.64045 -0.93449,2.56456 -1.44812,5.06885 -1.14142,5.56509 0.69125,1.11849 18.28453,-0.44503 33.48212,-2.97557 z m 103.47386,0.6733 c 2.01621,-0.62549 6.69016,-2.06573 10.38654,-3.20053 16.54034,-5.07792 33.41965,-19.41851 41.93934,-35.63151 7.77975,-14.8049 10.60435,-26.42692 10.60435,-43.63235 0,-22.55225 -6.05919,-40.04806 -20.42108,-58.96554 -6.92527,-9.12197 -20.00543,-21.07193 -23.06487,-21.07193 -0.94933,0 -1.72606,-0.48115 -1.72606,-1.06921 0,-0.58806 -1.62602,-1.39441 -3.61337,-1.79187 -4.68116,-0.93623 -15.57586,4.66731 -11.614,5.97351 4.56863,1.50624 14.63799,7.07347 19.1414,10.58302 l 4.525,3.52639 -2.48842,2.48842 c -1.36864,1.36864 -2.85043,2.12643 -3.29288,1.68397 -0.44245,-0.44244 0.15325,-1.3404 1.32378,-1.99546 2.86568,-1.60372 2.66704,-2.64394 -0.81287,-4.25677 -2.39964,-1.11217 -3.26021,-0.95931 -4.81368,0.85501 -1.74001,2.03218 -2.19072,2.0601 -5.62221,0.34824 -2.05181,-1.02356 -4.69277,-1.60409 -5.86882,-1.29002 -1.81075,0.48356 -1.71715,0.70627 0.61112,1.45403 1.51216,0.48566 2.74938,1.36876 2.74938,1.96244 0,1.28313 -1.69176,1.42426 -2.87609,0.23991 -0.46175,-0.46174 -1.79062,-0.96658 -2.95304,-1.12188 -1.16244,-0.15529 -3.41334,-0.68283 -5.00202,-1.17229 -2.61221,-0.80482 -2.80054,-0.61278 -1.96884,2.00766 1.94521,6.12883 0.91389,16.25505 -2.26429,22.23241 l -3.07866,5.79014 2.65625,1.37663 c 5.27262,2.73258 13.24578,9.98769 17.74806,16.14967 9.96138,13.6335 13.05838,25.87319 9.3207,36.83661 -7.9365,23.2795 -34.44205,34.97833 -66.51302,29.35702 -35.93499,-6.29858 -69.37814,-29.48472 -99.12873,-68.72597 -24.87812,-32.81442 -38.84876,-81.07369 -34.22755,-118.23343 0.87862,-7.06506 -0.32084,-13.67283 -2.80978,-15.47891 -0.5964,-0.43277 -0.8138,-3.6028 -0.48309,-7.04449 0.4968,-5.17035 0.3428,-5.8829 -0.88631,-4.10093 -1.5533,2.25203 -2.60253,6.60638 -4.02967,16.72336 -0.99535,7.05598 -3.85776,9.17134 -3.98898,2.94792 -0.0472,-2.24023 -0.55845,-5.1729 -1.13606,-6.51704 -0.77126,-1.79485 -1.07299,-0.74016 -1.13605,3.97133 -0.0859,6.41712 -1.67558,8.5917 -2.88893,3.95188 -1.26937,-4.85408 0.79754,-16.8267 5.90331,-34.19505 0.61878,-2.10489 0.50217,-2.67488 -0.37499,-1.83292 -2.01444,1.93361 -6.39112,10.28544 -6.39112,12.19591 0,0.95427 -0.78656,2.17521 -1.7479,2.7132 -0.96134,0.538 -1.69953,1.80254 -1.64042,2.8101 0.27546,4.69522 -0.33948,6.34643 -2.11044,5.66685 -1.38109,-0.52997 -1.83292,0.21065 -1.83292,3.00447 0,2.03929 -0.50311,4.64788 -1.11802,5.79684 -1.85403,3.4643 -2.67524,26.56664 -1.34611,37.86898 1.19441,10.1566 1.68948,12.78562 4.98606,26.4774 3.83429,15.92511 14.99102,46.1318 20.81426,56.35438 1.48597,2.60861 4.62605,8.31712 6.97793,12.68558 18.90595,35.11653 45.07202,62.92173 73.31581,77.90857 16.40437,8.70455 41.85331,16.31447 62.55475,18.70559 9.54333,1.10229 34.58951,0.27022 39.71325,-1.31934 z m 16.72539,-144.24904 c 0.29404,-0.88209 1.25632,-1.84437 2.13841,-2.13841 0.91646,-0.30549 1.37469,0.15274 1.0692,1.0692 -0.29404,0.88209 -1.25632,1.84437 -2.13841,2.13841 -0.91646,0.30549 -1.37469,-0.15274 -1.0692,-1.0692 z m -9.01185,-16.64366 c 0.88208,-0.35298 1.93602,-0.30958 2.34207,0.0964 0.40604,0.40604 -0.31568,0.69484 -1.60381,0.64179 -1.42351,-0.0587 -1.71305,-0.34818 -0.73826,-0.73825 z M 487.77393,704.0091 c 11.04883,-6.56207 27.40491,-25.37923 33.29896,-38.30946 3.11663,-6.83715 2.83476,-9.94755 -1.38413,-15.27433 -2.01621,-2.54567 -3.66584,-5.00105 -3.66584,-5.45639 0,-1.28896 -3.34588,-4.31918 -4.76912,-4.31918 -0.70282,0 -2.13011,1.64809 -3.17177,3.66243 -3.27796,6.33888 -22.88257,24.77655 -33.65402,31.65083 -5.68579,3.62863 -11.71249,7.51489 -13.39267,8.63614 -1.68017,1.12124 -4.01715,2.39664 -5.19327,2.83422 -3.56532,1.32647 -2.41956,3.93004 3.05487,6.9418 8.2318,4.52873 23.30879,12.25967 23.90896,12.25967 0.30084,0 2.53646,-1.18157 4.96803,-2.62573 z M 322.95542,693.19343 c 0,-0.67207 -0.51742,-1.22195 -1.14982,-1.22195 -0.63241,0 -1.48968,0.54988 -1.90504,1.22195 -0.41536,0.67207 0.10203,1.22194 1.14983,1.22194 1.04777,0 1.90503,-0.54987 1.90503,-1.22194 z m 132.66295,-12.26249 c 18.59844,-9.78334 34.83825,-23.16271 45.75484,-37.69568 6.16076,-8.20166 7.39169,-12.20854 4.49023,-14.61653 -0.88322,-0.73302 -2.90178,-4.09961 -4.48569,-7.48131 -1.5839,-3.3817 -3.32956,-6.14855 -3.87923,-6.14855 -0.54967,0 -4.71721,3.90919 -9.2612,8.68709 -10.10285,10.62289 -18.7144,16.45585 -35.14463,23.80489 -7.55973,3.38138 -31.48698,11.49808 -33.89522,11.49808 -4.02989,0 -2.16544,3.44759 5.48497,10.14228 12.70967,11.12193 18.50347,15.32539 21.25997,15.42434 1.44392,0.0518 5.7981,-1.57473 9.67596,-3.61461 z m 203.87709,-4.39782 c 0.90545,-2.35958 -0.16696,-9.44935 -2.1511,-14.22106 -1.52012,-3.65577 -0.94569,-3.61006 -16.89269,-1.34424 -5.03248,0.71504 -7.07989,3.58166 -3.39372,4.75161 3.43986,1.09176 3.03178,5.26921 -0.60388,6.18169 -1.64199,0.41212 -3.50425,0.42865 -4.13836,0.0368 -1.09377,-0.67598 -4.75238,2.59118 -3.74238,3.34197 1.93949,1.44173 11.89333,2.96684 20.2055,3.09583 8.17409,0.12685 10.08712,-0.20206 10.71663,-1.84253 z m 14.70594,-1.64165 c 6.51054,-2.79074 15.33788,-9.52326 15.33788,-11.69804 0,-2.25337 -8.51718,-9.42359 -14.22997,-11.97956 -4.93306,-2.20712 -5.12483,-2.20712 -7.34233,0 -1.25234,1.24647 -3.86817,3.42037 -5.81298,4.83091 -4.56093,3.30796 -3.2593,5.91167 2.489,4.97885 3.21096,-0.52106 4.38967,-0.16417 5.34341,1.61792 1.99978,3.73662 1.45382,4.91955 -3.16039,6.84749 -3.08116,1.28739 -4.17061,2.38801 -3.66584,3.70342 0.39502,1.02941 0.71823,2.37656 0.71823,2.99366 0,1.8275 4.29636,1.28867 10.32299,-1.29465 z m -46.62073,-4.65374 c 4.01765,-4.19352 5.82341,-11.2588 2.87756,-11.2588 -1.07528,0 -5.62278,-1.67984 -10.10555,-3.73299 -6.01076,-2.75299 -8.50494,-3.37298 -9.50068,-2.36163 -0.98849,1.00398 -0.75581,1.81035 0.86854,3.00998 1.9157,1.41483 1.99915,1.99485 0.61097,4.247 -1.14354,1.85526 -2.3134,2.37609 -4.05165,1.80386 -1.34414,-0.44249 -3.68112,-0.87851 -5.19328,-0.96892 -1.51215,-0.0904 -2.74937,-0.31883 -2.74937,-0.50761 0,-0.18878 1.92456,-2.10954 4.27681,-4.26836 2.35224,-2.15881 4.27681,-4.27673 4.27681,-4.7065 0,-1.11341 -15.1531,-10.84402 -16.88696,-10.84402 -1.92197,0 -1.8532,3.29543 0.0852,4.08196 2.79248,1.13307 -1.88388,3.36265 -5.61811,2.67858 -3.69257,-0.67644 -9.36137,0.30737 -9.33494,1.62007 0.024,1.19218 17.62981,12.39248 19.4798,12.39248 0.89048,0 2.22954,0.82603 2.97571,1.83563 1.50142,2.03151 19.79658,10.34531 22.81759,10.36891 1.05038,0.009 3.37758,-1.51713 5.17155,-3.38964 z m 70.45607,-20.6799 c 1.52928,-5.17933 1.47781,-5.74343 -0.67122,-7.35625 -8.6695,-6.50644 -20.57472,-9.60829 -23.4732,-6.11583 -0.70558,0.85015 -1.46025,3.737 -1.67706,6.41521 -0.3781,4.6705 -0.23618,4.88481 3.47268,5.2446 3.05412,0.29627 4.04045,-0.17176 4.69269,-2.22678 0.52555,-1.65586 1.48845,-2.34761 2.64828,-1.90255 1.00235,0.38465 2.38752,0.69935 3.07815,0.69935 0.74045,0 1.01552,1.88023 0.67039,4.5823 -0.475,3.71858 0.011,5.22357 2.57888,7.98447 l 3.1642,3.40217 1.92997,-2.55861 c 1.06148,-1.40723 2.67529,-5.08287 3.58624,-8.16808 z m -278.93982,3.859 c 4.21195,-0.73757 14.33586,-3.89758 26.10786,-8.14915 2.38235,-0.86041 5.6816,-2.40914 7.33168,-3.44161 1.65007,-1.03247 4.41113,-2.48645 6.13569,-3.23108 10.453,-4.51334 27.32672,-18.59798 33.41781,-27.89415 2.06047,-3.14469 2.02821,-3.45725 -1.02208,-9.89953 -1.73235,-3.65878 -3.14972,-7.15472 -3.14972,-7.76876 0,-2.645 -2.71847,-2.22394 -10.57133,1.63738 -4.60286,2.26327 -10.84328,5.25294 -13.8676,6.64374 -6.55104,3.01261 -24.58373,7.61065 -34.82546,8.87989 -20.85994,2.58518 -33.62487,3.89909 -39.31969,4.04724 -3.47992,0.0905 -6.70094,0.53841 -7.15783,0.9953 -1.12751,1.12751 16.34579,27.02465 23.21508,34.40702 3.37547,3.62758 6.20888,5.67639 7.28115,5.26492 0.96545,-0.37048 3.85644,-1.04152 6.42444,-1.49121 z m 240.08291,-7.93076 c 4.37367,-4.59768 4.69858,-5.44358 4.69858,-12.23278 0,-13.68309 -7.2541,-23.54741 -20.16212,-27.417 -10.8815,-3.2621 -22.44487,-9.42147 -30.81039,-16.41152 -4.08527,-3.41357 -7.81366,-6.2065 -8.2853,-6.2065 -0.47163,0 -0.50033,3.43672 -0.0638,7.63716 3.83974,36.94497 19.98826,59.45854 42.70902,59.54305 6.85512,0.0255 7.44999,-0.21978 11.91398,-4.91241 z m -70.08146,-6.35187 c 0.20331,-1.03741 -3.25169,-5.50753 -7.67777,-9.93362 -7.66914,-7.66914 -8.09698,-7.91711 -9.10147,-5.2751 -1.62996,4.2871 -4.60965,6.32876 -6.70208,4.59219 -1.12763,-0.93584 -3.0487,-1.09146 -5.53151,-0.4481 l -3.80389,0.98569 4.61504,5.12363 c 2.53828,2.818 6.97816,7.05476 9.86641,9.41502 l 5.25136,4.29139 6.35713,-3.43246 c 3.49642,-1.88785 6.52347,-4.28125 6.72678,-5.31864 z m 25.70994,2.93758 c -2.91858,-3.2503 -6.13132,-7.50045 -7.13943,-9.44478 -1.0081,-1.94433 -4.66027,-7.67059 -8.11591,-12.72504 -12.08506,-17.67634 -19.29803,-33.59015 -25.21169,-55.62386 -1.55712,-5.80169 -3.33078,-8.28363 -3.33078,-4.66088 0,1.40173 -0.82143,4.12362 -1.82539,6.04864 -2.34998,4.50587 -2.36032,1.32531 -0.0208,-6.38682 1.00083,-3.29915 1.80363,-7.37314 1.78399,-9.05332 l -0.0357,-3.05486 -1.86307,3.43681 c -1.0247,1.89025 -2.03974,4.91457 -2.25564,6.7207 -0.21591,1.80615 -0.50443,3.83377 -0.64116,4.50584 -0.43875,2.15668 -3.64789,-10.85466 -3.67232,-14.88929 -0.0282,-4.66537 -1.95602,-10.1606 -3.56441,-10.1606 -0.63658,0 -1.86923,2.06203 -2.73922,4.58229 l -1.58181,4.5823 -1.0332,-6.10973 c -0.56825,-3.36035 -1.32261,-9.27152 -1.67635,-13.13592 -0.35375,-3.8644 -1.1442,-7.02619 -1.75658,-7.02619 -1.50643,0 -1.40608,20.28139 0.12767,25.80294 0.94944,3.41806 0.81122,5.21698 -0.61027,7.94266 -1.01074,1.93806 -1.8228,4.62351 -1.80458,5.96765 0.0312,2.29884 0.17577,2.27267 2.43637,-0.44085 2.94947,-3.54045 3.11813,-2.3684 0.33675,2.34011 -1.6468,2.78782 -1.78648,4.06693 -0.68777,6.29828 0.75829,1.53998 1.74528,4.17467 2.19333,5.85484 1.87343,7.02546 12.26232,25.98857 19.57784,35.73595 8.18838,10.9104 27.78438,30.24914 30.65152,30.24914 0.90932,0 1.6533,0.54988 1.6533,1.22195 0,0.67207 0.57905,1.22195 1.28677,1.22195 0.70773,0 3.30982,1.37469 5.78243,3.05486 2.47259,1.68018 5.51869,3.05487 6.7691,3.05487 1.79857,0 1.165,-1.23446 -3.03303,-5.90964 z m 80.8407,-7.77616 c 0,-1.97396 -0.36134,-2.32694 -1.35987,-1.32841 -0.74792,0.74791 -0.99041,1.95764 -0.53885,2.68828 1.26397,2.04514 1.89872,1.59053 1.89872,-1.35987 z m -2.4439,-3.49357 c 0,-1.30447 -0.82481,-2.37177 -1.83291,-2.37177 -1.00811,0 -1.83292,-0.87064 -1.83292,-1.93475 0,-3.10558 -3.01858,-1.23427 -3.42089,2.12073 -0.26456,2.20624 0.41289,3.40832 2.44389,4.33648 3.40792,1.55738 4.64283,0.98534 4.64283,-2.15069 z m -14.66335,-2.48617 c 0,-1.53063 0.98171,-2.81501 2.44389,-3.19738 3.12522,-0.81726 3.0878,-1.11209 -0.78548,-6.19022 -3.75049,-4.91715 -5.38955,-3.6533 -4.80567,3.70554 0.19581,2.46766 -0.21307,4.67634 -0.90861,4.90818 -1.75423,0.58475 0.13809,3.33217 2.29507,3.33217 0.97241,0 1.7608,-1.14545 1.7608,-2.55829 z m -116.32681,-4.03731 c 1.81641,-0.9393 4.33048,-2.84366 5.58684,-4.23193 2.2526,-2.48908 2.19322,-2.65959 -4.2797,-12.28888 -7.53078,-11.20302 -10.31361,-13.35173 -9.13154,-7.05075 0.6544,3.48824 0.3284,4.31074 -2.25698,5.6944 -2.78039,1.48801 -3.30902,1.30987 -6.61511,-2.22932 -3.54897,-3.79917 -7.86091,-5.00721 -9.33858,-2.61629 -0.85152,1.37779 1.84777,5.56616 10.82294,16.79342 6.54604,8.18862 8.99631,9.14368 15.21213,5.92935 z M 414.69417,607.02556 c 13.30457,-1.93608 20.84909,-3.5174 37.17658,-7.79219 11.10907,-2.90854 29.73222,-11.61395 30.80044,-14.39772 0.39159,-1.02045 -0.83135,-6.49984 -2.71762,-12.17644 l -3.42958,-10.32108 -3.77299,0.81629 c -2.07516,0.44895 -5.97251,1.78156 -8.66079,2.96135 -19.07585,8.37167 -36.70471,11.46371 -64.81462,11.36827 -12.12558,-0.0412 -24.36031,-0.46577 -27.1883,-0.94356 -4.22297,-0.71347 -5.1418,-0.52656 -5.1418,1.0459 0,2.43877 5.18289,17.90525 8.54133,25.48852 l 2.57054,5.80424 h 11.94959 c 6.57226,0 17.68151,-0.83411 24.68722,-1.85358 z m -103.63263,-2.54514 c 0.40308,-0.40309 0.27877,-1.91525 -0.27624,-3.36036 -1.67506,-4.36139 -6.1646,-27.25129 -8.54669,-43.57533 -1.72268,-11.80514 -1.72775,-56.21702 -0.007,-66.9103 2.38178,-14.8067 3.67913,-21.5164 6.19792,-32.05467 3.49122,-14.60681 4.03754,-16.45032 8.29398,-27.98733 2.08376,-5.64802 3.78866,-10.45943 3.78866,-10.69203 0,-2.44163 -17.85227,6.02458 -32.38158,15.35656 -36.61274,23.51588 -55.62614,49.3229 -63.09703,85.64206 -5.33733,25.94696 0.76602,51.13831 15.69563,64.78312 6.38106,5.83195 19.68251,13.07039 29.07221,15.82069 9.17844,2.6884 39.37109,4.86726 41.26077,2.97759 z m 285.21755,-9.04269 c -1.21055,-5.4647 -1.99811,-6.79368 -4.21409,-7.11117 -1.49893,-0.21476 -2.73529,0.0602 -2.74749,0.61097 -0.0479,2.16129 6.79391,14.80276 7.59662,14.0362 0.46956,-0.44842 0.18378,-3.83961 -0.63504,-7.536 z m 64.00295,3.66676 c 2.39044,-0.66407 5.8058,-2.73083 7.58969,-4.5928 3.0861,-3.22119 7.63864,-13.51019 6.48726,-14.66157 -0.29867,-0.29865 -2.77926,1.25406 -5.51242,3.45049 -7.47913,6.01039 -15.43301,6.35087 -26.37446,1.129 -13.35205,-6.37235 -23.1813,-18.01355 -30.42767,-36.03681 -1.89148,-4.70449 -3.88199,-9.65337 -4.42337,-10.99751 -0.54137,-1.34414 -1.97077,-5.19327 -3.17643,-8.55362 -2.31489,-6.45199 -9.37439,-20.71932 -13.30166,-26.88282 -9.11981,-14.31273 -22.12786,-26.58153 -38.16092,-35.99223 -21.85769,-12.82951 -33.45505,-20.85962 -40.78036,-28.23669 -8.75294,-8.81479 -16.86231,-21.34368 -20.11853,-31.08288 -1.1235,-3.36035 -2.52025,-7.06455 -3.10387,-8.23156 -0.58363,-1.167 -1.06114,-3.1659 -1.06114,-4.442 0,-1.27611 -0.83746,-4.17041 -1.86103,-6.4318 l -1.86102,-4.11162 0.62113,6.72071 c 2.53535,27.43302 18.66595,55.12804 51.95453,89.20207 27.87603,28.53376 38.11015,41.08144 52.78633,64.71945 13.06887,21.0492 17.18247,26.80055 24.62355,34.42694 8.69242,8.90889 17.83144,14.6608 29.99202,18.87632 9.37462,3.24975 10.28295,3.34724 16.10837,1.72893 z m -111.90717,-3.65406 c 3.12666,-1.34024 5.4563,-2.85366 5.17699,-3.36315 -1.28732,-2.34812 -6.84924,-14.78003 -8.22535,-18.38515 -1.72734,-4.52528 -3.84351,-4.5985 -4.87965,-0.16883 -0.57385,2.4533 -1.55171,3.02765 -5.67277,3.33194 -4.6656,0.3445 -5.02559,0.13673 -5.71231,-3.29686 -0.60611,-3.03056 -1.49016,-3.80661 -5.10994,-4.48569 -2.40737,-0.45162 -4.65838,-0.53979 -5.00225,-0.19592 -0.66845,0.66846 9.36443,22.78045 12.52442,27.6032 1.62186,2.47528 2.55886,2.78161 6.55422,2.14272 2.56398,-0.41 7.21998,-1.84202 10.34664,-3.18226 z m -324.87578,-5.07714 c -2.38423,-2.78544 -4.057,-5.51419 -3.71726,-6.06391 0.33975,-0.54971 -0.87878,-3.90695 -2.70782,-7.46052 -2.40433,-4.67125 -3.34732,-8.36383 -3.40415,-13.33008 -0.0568,-4.96882 -0.50117,-6.70734 -1.60605,-6.28449 -2.02046,0.77326 -1.92706,-0.29832 0.46545,-5.34016 2.27793,-4.80038 1.72918,-6.10428 -1.77887,-4.22683 -1.34155,0.71797 -7.16234,1.66846 -12.93508,2.11218 -6.37342,0.4899 -10.48524,1.33592 -10.46873,2.15395 0.0149,0.74094 1.10246,2.72185 2.41671,4.40202 1.31425,1.68018 2.40177,3.61693 2.41672,4.30389 0.0149,0.68696 1.55075,3.1614 3.41288,5.49876 1.86214,2.33735 4.12235,5.70171 5.0227,7.47636 0.90034,1.77464 4.9339,6.44859 8.96347,10.38654 5.87596,5.74238 7.15566,6.55511 6.46376,4.10506 -0.75554,-2.67536 -0.20461,-2.40969 4.43461,2.1384 6.77829,6.64513 8.66834,6.72571 3.02166,0.12883 z m 371.01984,-7.41842 c 0.27231,-0.81695 -0.0985,-4.80355 -0.82397,-8.85911 l -1.31909,-7.37376 h -5.48942 c -5.37109,0 -5.48016,0.0784 -5.06025,3.63677 0.23603,2.00022 1.53381,5.98682 2.88395,8.85911 2.03292,4.32485 3.04415,5.22234 5.88422,5.22234 1.8862,0 3.65225,-0.66841 3.92456,-1.48535 z m 60.55279,-0.77628 c 1.14913,-0.72901 -0.51653,-3.14892 -6.10973,-8.87629 -4.98867,-5.10832 -9.11726,-10.86583 -11.7542,-16.39176 -2.23552,-4.68476 -4.57249,-9.47255 -5.19327,-10.63956 -1.19797,-2.25211 -1.54729,-7.04277 -0.51353,-7.04277 0.33831,0 5.29052,3.91664 11.00491,8.70364 8.8205,7.38905 11.06026,10.06026 14.82885,17.68548 2.44149,4.94003 4.9126,8.68919 5.49137,8.33149 3.52168,-2.17652 -0.67781,-19.30244 -7.3145,-29.82914 -1.908,-3.02634 -5.06755,-8.09698 -7.02123,-11.26806 -2.50706,-4.06929 -4.36107,-5.77699 -6.30153,-5.80425 -3.05431,-0.0429 -3.41765,-1.39452 -1.3922,-5.17908 1.11763,-2.08831 0.65519,-3.89091 -2.62005,-10.21286 -7.77971,-15.01666 -23.15173,-29.06701 -40.87532,-37.36088 -7.95786,-3.72393 -25.1409,-8.38311 -30.9169,-8.38311 h -3.24935 l 3.02126,2.06222 c 15.76321,10.75944 30.52539,31.61653 40.85173,57.71833 1.70761,4.3163 3.10475,8.57784 3.10475,9.47008 0,0.89223 0.54987,1.62225 1.22194,1.62225 0.67207,0 1.22037,0.96228 1.21844,2.1384 -0.005,2.79307 5.90213,16.99974 9.01788,21.68955 8.06428,12.13832 18.40033,20.28124 27.64401,21.7784 1.68018,0.27213 3.32981,0.56125 3.66584,0.64249 0.33604,0.0813 1.3219,-0.30333 2.19083,-0.85457 z M 417.29327,572.3571 c 1.54379,-0.59709 6.89308,-1.71217 11.88732,-2.47796 4.99424,-0.76579 9.66818,-1.85498 10.38654,-2.42041 0.71836,-0.56544 3.78054,-1.3474 6.80486,-1.73769 7.44081,-0.96027 11.57911,-2.13388 16.1742,-4.587 1.16701,-0.62301 2.81664,-1.13548 3.66584,-1.13882 0.84921,-0.004 3.06539,-1.24056 4.92486,-2.74938 l 3.38083,-2.7433 -2.26723,-10.38655 c -2.23017,-10.21668 -2.32542,-10.38364 -5.82473,-10.2091 -1.95663,0.0976 -8.23144,1.41269 -13.94404,2.92243 -15.03491,3.97346 -27.15422,4.55849 -50.05865,2.41648 -14.59193,-1.36464 -21.44946,-2.77638 -33.54747,-6.90635 -4.65103,-1.58775 -8.63763,-2.88681 -8.85911,-2.88681 -2.25913,0 2.10198,36.86735 4.69776,39.71325 2.75918,3.02503 46.19283,5.66117 52.57902,3.19121 z m 281.4106,-6.24608 c 0.41537,-0.67207 0.17288,-1.22194 -0.53885,-1.22194 -0.71174,0 -1.29407,0.54987 -1.29407,1.22194 0,0.67207 0.24249,1.22195 0.53886,1.22195 0.29637,0 0.8787,-0.54988 1.29406,-1.22195 z m -157.5103,-1.54636 c 0.29225,-0.29224 -0.63883,-5.42516 -2.06906,-11.40647 -1.43023,-5.98131 -2.72866,-11.69993 -2.8854,-12.70804 -0.15673,-1.0081 -1.1953,-2.01071 -2.30793,-2.22799 -1.52262,-0.29738 -2.02296,0.51591 -2.02296,3.28823 0,4.69878 -1.21767,5.38312 -7.81738,4.39343 -4.52571,-0.67867 -5.477,-1.31239 -6.07298,-4.04565 -0.95442,-4.37709 -2.08923,-5.80508 -5.44618,-6.85328 -3.15844,-0.98619 -3.16533,-0.71898 -0.31378,12.16597 2.79649,12.63616 4.39008,16.80346 6.81989,17.83433 2.3673,1.00434 21.04291,0.63234 22.11578,-0.44053 z m 48.53194,-3.50693 c 1.46797,-0.76311 2.83346,-1.52323 3.03441,-1.68915 0.51142,-0.42227 -4.52955,-9.34673 -6.5991,-11.68296 -0.93991,-1.06103 -1.70891,-2.57319 -1.70891,-3.36036 0,-0.78716 -0.44803,-1.43121 -0.99563,-1.43121 -0.54759,0 -1.91339,-1.92457 -3.0351,-4.27681 -1.12171,-2.35225 -2.51753,-4.27682 -3.10181,-4.27682 -1.22982,0 -0.66831,9.45949 1.21493,20.4676 1.25721,7.3488 1.44277,7.63717 4.91435,7.63717 1.98429,0 4.80888,-0.62436 6.27686,-1.38746 z m 98.89731,-11.07653 c 4.08683,-1.4795 4.39893,-3.42131 0.54987,-3.42131 -1.54576,0 -3.47032,-0.65986 -4.27681,-1.46634 -1.14048,-1.14048 -1.79219,-1.14048 -2.93267,0 -1.14048,1.14048 -0.86894,1.46634 1.22195,1.46634 3.39813,0 3.38515,0.82359 -0.0611,3.87773 -2.99537,2.65456 -3.12427,2.66525 5.49876,-0.45642 z m -496.1771,-9.0402 c 0.35441,-5.34697 0.60897,-5.70088 5.26022,-7.31328 6.56811,-2.2769 6.72071,-2.23827 6.72071,1.7011 0,1.88776 0.82481,4.49967 1.83291,5.80424 1.73577,2.24622 1.92103,2.2586 3.49506,0.23355 0.91419,-1.17612 2.28888,-2.1384 3.05487,-2.1384 0.766,0 1.45542,-1.23722 1.53205,-2.74938 0.21878,-4.31723 0.81563,-8.69577 2.22333,-16.31076 1.74556,-9.44264 1.67037,-10.26657 -0.93705,-10.26657 -1.23213,0 -2.65265,-0.41241 -3.1567,-0.91646 -0.50405,-0.50405 -1.28304,-0.9424 -1.73108,-0.97411 -2.4601,-0.17409 -13.9823,-7.17181 -20.09531,-12.20437 -3.87771,-3.19236 -7.22452,-5.5885 -7.43734,-5.32475 -0.21282,0.26374 -0.99733,2.95397 -1.74336,5.97828 -3.42162,13.87095 -3.0671,43.30186 0.5051,41.93107 1.0913,-0.41876 1.68443,0.22948 1.68443,1.84097 0,3.11418 3.11318,6.32776 6.13006,6.32776 1.85229,0 2.3608,-1.07331 2.6621,-5.61889 z m 246.59459,-7.91042 c 13.38906,-1.66962 25.30526,-4.76862 28.93212,-7.52424 1.32928,-1.00998 1.22771,-5.18388 -0.31217,-12.82897 -0.50023,-2.48347 -1.27222,-2.72889 -8.77995,-2.79108 -13.37648,-0.11083 -13.94444,-0.16005 -23.50584,-2.03689 -9.63022,-1.89035 -18.7802,-4.53658 -25.23457,-7.29801 -2.11778,-0.90608 -4.77263,-1.64741 -5.89966,-1.64741 -2.79717,0 -31.75497,-14.50038 -36.38578,-18.21987 -1.18025,-0.94798 -2.47933,-1.39017 -2.88685,-0.98266 -1.5846,1.58461 -5.21502,23.48362 -5.47123,33.00291 l -0.26988,10.02758 6.47342,3.24661 c 7.05129,3.53643 7.68175,3.70478 23.85157,6.36888 19.61659,3.23197 28.10906,3.34921 49.48882,0.68315 z m 120.97267,-0.52308 c 0,-1.68017 -0.54987,-3.05486 -1.22194,-3.05486 -0.67207,0 -1.22195,1.37469 -1.22195,3.05486 0,1.68018 0.54988,3.05487 1.22195,3.05487 0.67207,0 1.22194,-1.37469 1.22194,-3.05487 z m -25.59276,0.61098 c 0.59961,0 0.96704,-5.36129 0.81653,-11.91398 -0.21789,-9.48609 -0.63596,-11.91397 -2.0515,-11.91397 -0.9778,0 -2.10234,1.37469 -2.49898,3.05486 -0.78557,3.32778 -1.48184,3.46488 -10.0082,1.9707 l -5.73138,-1.00439 -0.99841,-6.27241 c -0.68483,-4.30233 -1.62589,-6.39326 -2.99616,-6.65715 -1.71495,-0.33027 -2.01861,1.10131 -2.14533,10.11417 -0.0811,5.77439 -0.24515,10.88965 -0.36436,11.36726 -0.59307,2.37606 1.86894,8.71221 3.68384,9.48054 2.62413,1.11094 17.4202,2.77843 19.57641,2.20623 0.89505,-0.23752 2.11795,-0.43186 2.71754,-0.43186 z m 118.48532,-19.24565 c 9.17013,-10.39538 19.52649,-28.37864 19.52649,-33.90671 0,-1.50383 -11.42119,-7.82168 -17.10725,-9.46322 -3.55316,-1.02577 -4.80905,3.03345 -4.84892,15.67234 -0.0389,12.32841 -1.90227,25.75825 -3.87693,27.94197 -1.39516,1.54287 -1.34574,5.55986 0.0684,5.55986 0.61495,0 3.42215,-2.61191 6.23823,-5.80424 z m 66.29677,-6.41522 c 1.47815,-4.5796 2.0621,-9.6404 1.83292,-15.8853 l -0.33633,-9.1646 -3.66583,0.25368 c -2.01622,0.13951 -10.26435,0.58464 -18.3292,0.98917 -16.71849,0.83859 -20.16211,1.36302 -20.16211,3.07056 0,1.70833 -4.81493,11.92964 -8.1739,17.35186 -1.55299,2.5069 -2.82361,5.01584 -2.82361,5.57541 0,0.55957 5.91116,1.00109 13.13592,0.98116 12.71046,-0.0351 26.26628,1.60846 28.05984,3.40201 0.48044,0.48045 2.54293,0.71002 4.5833,0.51015 3.32375,-0.32559 3.93546,-1.06269 5.879,-7.0841 z m 14.61296,-6.41522 c 5.45383,-6.88227 9.16278,-14.80971 10.45055,-22.33678 1.28539,-7.51318 0.82463,-9.13371 -2.59017,-9.10978 -4.06385,0.0285 -13.46552,3.10861 -13.95306,4.57126 -0.23878,0.71634 0.0378,4.82426 0.61442,9.1287 0.57671,4.30443 0.72344,11.22682 0.32607,15.38306 -0.39737,4.15625 -0.32666,7.55681 0.15715,7.55681 0.48381,0 2.73157,-2.33697 4.99504,-5.19327 z m -512.74538,1.83292 c 1.96302,-6.1618 9.4169,-21.82012 13.20907,-27.74826 l 4.32658,-6.76353 -4.56449,-2.87523 c -2.51048,-1.58138 -6.4258,-3.83521 -8.70071,-5.00852 -2.27491,-1.17332 -7.47488,-5.38005 -11.55548,-9.34832 -4.08062,-3.96827 -7.50094,-7.21504 -7.60073,-7.21504 -0.87276,0 -11.33105,16.3968 -15.20255,23.83497 -5.91913,11.37223 -6.09389,14.51378 -1.09435,19.67199 l 3.78978,3.91006 3.25406,-3.64193 c 3.41715,-3.82443 6.77041,-3.98405 11.39973,-0.54263 1.89165,1.40626 1.91401,1.99615 0.25778,6.80339 -0.99741,2.89498 -1.48054,5.59653 -1.07365,6.00343 0.7809,0.7809 10.28994,4.71516 11.9189,4.93132 0.52516,0.0697 1.26138,-0.83558 1.63606,-2.0117 z m 246.52008,1.18517 c 0.32402,-0.52428 0.73289,-4.78582 0.90859,-9.47009 l 0.31945,-8.51684 -7.46986,-1.83292 c -4.10843,-1.00811 -7.87574,-2.24533 -8.37181,-2.74938 -0.49606,-0.50405 -1.86988,-0.91646 -3.05294,-0.91646 -2.99402,0 -20.0502,-8.01759 -26.50767,-12.46045 -2.94299,-2.02483 -7.5346,-4.92187 -10.20356,-6.43787 -2.66898,-1.516 -10.41616,-7.91929 -17.21598,-14.22954 -6.79981,-6.31024 -12.92409,-11.47317 -13.60949,-11.47317 -1.81629,0 -10.20792,17.26476 -13.06654,26.88281 -0.79901,2.68828 -1.9351,5.8426 -2.52468,7.00961 -1.52928,3.02708 -1.8119,2.69053 6.85721,8.16557 15.9694,10.08559 35.86089,18.06351 50.64721,20.31318 2.30986,0.35143 4.7843,1.12232 5.49876,1.71307 0.71445,0.59076 2.67369,1.10282 4.35387,1.1379 1.68017,0.0351 7.72881,0.84499 13.4414,1.79976 12.13555,2.02828 19.16911,2.40282 19.99604,1.06482 z m 67.98409,-4.15328 c 0,-1.46444 0.6624,-4.49446 1.472,-6.73339 1.43205,-3.96026 1.31558,-4.22799 -4.29062,-9.86232 -3.16943,-3.18536 -7.90773,-8.19076 -10.52954,-11.12311 -5.1114,-5.71685 -6.76792,-5.82055 -7.79014,-0.48765 -0.35586,1.85641 -1.56909,7.10976 -2.69608,11.67409 -1.127,4.56432 -1.75138,9.07462 -1.38749,10.02287 0.75251,1.96103 10.52022,6.71869 13.85183,6.74695 1.21299,0.01 3.03026,0.55174 4.03836,1.20324 3.44065,2.22351 7.33168,1.45893 7.33168,-1.44068 z m -64.92392,-22.43015 c 0.25036,-0.25037 0.89977,-2.81758 1.44312,-5.70493 0.54335,-2.88733 1.33486,-6.14455 1.75893,-7.23824 0.56834,-1.46583 -0.93458,-3.03642 -5.71744,-5.97488 -17.17167,-10.54983 -31.62697,-24.25458 -46.71074,-44.28536 -2.40831,-3.19815 -4.37873,-6.27472 -4.37873,-6.83681 0,-0.56208 -1.09975,-2.01724 -2.44389,-3.23367 -1.34414,-1.21644 -2.44389,-2.95128 -2.44389,-3.85523 0,-3.01924 -2.32593,-1.69865 -9.48045,5.38266 -7.50891,7.43208 -16.18042,19.62135 -16.18042,22.7443 0,2.14337 19.29275,21.55125 21.4234,21.55125 0.77815,0 2.46231,1.17107 3.74259,2.60239 4.8161,5.38422 26.83615,17.16674 40.79005,21.82601 4.35248,1.45331 8.75148,3.14654 9.77557,3.76273 1.64054,0.98711 7.18158,0.5001 8.4219,-0.74022 z m 244.04857,-4.28865 c 11.00252,-4.04903 22.68327,-7.27696 26.33272,-7.27696 3.64051,0 8.15472,-4.5458 10.75986,-10.83517 0.87212,-2.1055 2.03046,-3.82819 2.57408,-3.82819 1.08766,0 -0.28673,5.62726 -2.28743,9.36561 -0.81392,1.52083 -0.85381,3.00989 -0.11095,4.14164 0.98059,1.4939 1.43485,1.40699 2.93838,-0.56217 2.559,-3.3515 5.3266,-13.69635 5.75163,-21.4987 l 0.3661,-6.7207 -4.0578,-0.38936 c -2.27514,-0.2183 -5.36189,0.46511 -7.02619,1.55561 -3.66058,2.39849 -3.98584,0.6808 -0.34331,-1.81296 8.21123,-5.62157 8.99156,-6.81656 8.79292,-13.46526 -0.26275,-8.79487 -7.53102,-22.83471 -15.56836,-30.07284 -3.2908,-2.96357 -6.55077,-5.19915 -7.24438,-4.96794 -3.11919,1.03973 -3.74732,4.45592 -2.22575,12.10522 2.68026,13.47443 2.97619,18.21901 1.32839,21.29797 -0.85925,1.60552 -1.92398,2.91912 -2.36606,2.91912 -0.44209,0 -3.49791,-2.47346 -6.79071,-5.49658 -6.20013,-5.69234 -24.16381,-15.23637 -33.22711,-17.65343 -7.71986,-2.05879 -22.04559,-1.81343 -28.41636,0.48669 -13.3388,4.81587 -20.77308,13.28806 -20.77308,23.67325 0,9.93138 4.49946,16.32041 14.66335,20.82133 5.10009,2.25849 5.24376,2.4413 1.98167,2.52135 -4.86459,0.11938 -16.52602,-6.77325 -17.9946,-10.63593 -2.08781,-5.49133 -3.81686,-1.47529 -2.29629,5.33356 2.2236,9.95698 6.58214,15.96354 16.00837,22.06135 7.63481,4.93892 11.63081,6.83399 23.68491,11.23228 5.95895,2.17431 27.10759,0.80661 35.54597,-2.29879 z M 666.3223,448.73207 c 0,-0.71173 0.54987,-0.95422 1.22195,-0.53885 0.67207,0.41536 1.22194,0.99769 1.22194,1.29406 0,0.29637 -0.54987,0.53886 -1.22194,0.53886 -0.67208,0 -1.22195,-0.58233 -1.22195,-1.29407 z m 52.26024,-14.2987 c -4.08812,-6.19811 -8.31556,-7.28401 -21.27661,-5.46526 -10.68156,1.49886 -13.05114,1.05527 -15.13193,-2.83272 -1.3626,-2.54602 -1.18974,-3.45322 1.37603,-7.22164 5.64873,-8.29648 19.80887,-7.25774 30.46242,2.23461 4.38708,3.90891 8.79462,12.29317 8.28658,15.76322 -0.32313,2.20708 -0.86415,1.84632 -3.71649,-2.47821 z m -17.02935,-10.08681 c 4.13341,-0.0136 5.19954,-0.34492 3.87139,-1.20324 -1.00811,-0.65149 -4.44483,-1.19295 -7.63717,-1.20324 -4.5242,-0.0145 -5.80424,0.41435 -5.80424,1.94495 0,1.28857 0.66449,1.70866 1.93286,1.22195 1.06307,-0.40795 4.49979,-0.75013 7.63716,-0.76042 z m -51.45813,45.64557 c 0.56607,-1.6982 -26.64022,-18.79614 -35.0945,-22.05531 -3.69639,-1.42499 -10.84477,-4.11108 -15.8853,-5.96911 -20.82964,-7.67817 -34.72475,-17.41341 -45.73939,-32.04604 -11.94314,-15.86614 -16.93205,-32.81875 -13.90931,-47.26468 1.90689,-9.11322 4.55656,-14.77719 8.59713,-18.37735 l 3.62007,-3.2255 -5.30547,-2.67807 c -2.91801,-1.47293 -7.23004,-3.43408 -9.58229,-4.35812 -2.35224,-0.92402 -7.17996,-2.96892 -10.72824,-4.54421 -3.54828,-1.57529 -7.14996,-2.86417 -8.00375,-2.86417 -0.85377,0 -2.11399,-0.56168 -2.80049,-1.24818 -0.77319,-0.77318 -3.04454,-0.87494 -5.96872,-0.26738 -3.84467,0.7988 -5.36531,2.02994 -8.1955,6.63525 -4.33061,7.0468 -8.84482,19.85749 -10.73457,30.46323 -1.86859,10.48695 0.18609,28.84421 4.56537,40.78872 6.64411,18.12185 21.47794,34.8971 38.15251,43.14581 8.72984,4.31855 9.61205,4.50167 20.77308,4.31188 6.41082,-0.109 14.93336,-1.07131 18.93897,-2.13841 9.18486,-2.44687 21.24817,-2.47955 30.64617,-0.083 9.4705,2.41503 32.80414,14.04569 39.05352,19.46622 4.82639,4.18629 6.77725,4.77878 7.60071,2.30842 z M 247.02878,458.36816 c 2.44353,-2.80466 8.29192,-8.86503 12.99642,-13.46749 7.97229,-7.79937 8.38752,-8.46123 6.10973,-9.73838 -4.90189,-2.74848 -13.76312,-13.01708 -17.07567,-19.78769 -1.86802,-3.81808 -3.79288,-7.187 -4.27746,-7.48649 -2.40055,-1.48362 -33.02348,27.06158 -33.02348,30.78286 0,1.30655 1.37469,3.66699 3.05487,5.24544 l 3.05486,2.8699 3.06286,-2.87742 3.06287,-2.87741 5.18527,2.83937 c 7.33797,4.01815 7.30501,3.94396 3.94745,8.88504 -1.67144,2.45976 -3.03898,4.7604 -3.03898,5.11256 0,0.72233 9.81257,5.4856 11.44251,5.55447 0.58078,0.0246 3.05522,-2.25009 5.49875,-5.05476 z m 231.11381,-7.04796 c 0,-1.30447 0.47885,-2.66773 1.06412,-3.02943 0.58526,-0.36172 1.41803,-2.42728 1.85061,-4.59015 0.68523,-3.42614 0.17039,-4.57006 -3.99866,-8.88454 -9.12911,-9.44752 -27.12482,-40.93341 -29.92331,-52.35479 -0.4599,-1.87697 -1.5706,-3.6945 -2.46822,-4.03895 -1.84036,-0.70621 -11.73655,3.24416 -11.73655,4.68502 0,0.51353 -0.58827,0.93368 -1.30726,0.93368 -0.71901,0 -3.85438,1.7871 -6.96749,3.97133 -3.11312,2.18423 -6.21109,4.34796 -6.8844,4.80831 -1.37277,0.93859 0.0473,4.16669 6.14728,13.97422 9.76942,15.70713 44.0034,46.89708 51.47408,46.89708 1.9073,0 2.7498,-0.72668 2.7498,-2.37178 z m 150.62583,-7.87153 c -0.30613,-1.6014 0.0451,-3.28348 0.78042,-3.73796 0.73536,-0.45448 1.33702,-3.26831 1.33702,-6.25296 0,-2.98466 0.44946,-5.42664 0.99879,-5.42664 0.54934,0 1.98767,-3.16179 3.19631,-7.02619 1.69547,-5.42101 3.79551,-8.63138 9.19224,-14.05238 3.8471,-3.86441 6.82699,-7.0262 6.62197,-7.0262 -0.20502,0 -2.72895,0.79511 -5.60874,1.76693 -29.87494,10.08152 -45.42795,0.20786 -60.71237,-38.54259 -2.44305,-6.19385 -3.29527,-7.10717 -9.0468,-9.69552 -3.49232,-1.57165 -8.83714,-4.31807 -11.87736,-6.10317 -4.60303,-2.7027 -6.03385,-3.02633 -8.55363,-1.9347 -3.99822,1.73214 -5.42384,3.18568 -8.67019,8.84006 -3.78609,6.59447 -3.8973,26.38024 -0.19504,34.69928 10.79966,24.26698 28.97239,40.10386 57.39235,50.01532 5.87062,2.04738 10.8321,3.72251 11.02551,3.72251 0.19342,0 0.35166,-1.0673 0.35166,-2.37177 0,-1.30448 0.5884,-2.73544 1.30758,-3.17991 0.71916,-0.44447 1.78407,-1.98908 2.36643,-3.43247 0.98692,-2.44602 1.06412,-2.39878 1.13632,0.69529 0.049,2.1017 1.66149,4.90365 4.39499,7.63716 2.37466,2.37464 4.4979,4.31754 4.71834,4.31754 0.22044,0 0.15032,-1.31023 -0.1558,-2.91163 z m -139.65549,-19.1445 c 0.0149,-1.71378 -0.463,-3.63834 -1.06209,-4.27681 -0.5991,-0.63847 -2.58278,-5.55986 -4.4082,-10.93642 -2.64387,-7.78729 -3.45113,-12.84881 -3.96892,-24.88551 l -0.65,-15.10994 -8.09779,0.79795 c -7.7772,0.76634 -16.26221,3.00466 -18.00801,4.75046 -2.97594,2.97594 11.33701,31.69538 24.40364,48.96678 l 7.28703,9.63194 2.23858,-2.91124 c 1.23122,-1.60119 2.25081,-4.31343 2.26576,-6.02721 z m -209.77585,2.9331 c -0.36976,-0.96359 0.18374,-1.65006 1.33047,-1.65006 1.08001,0 1.96365,-0.46328 1.96365,-1.02952 0,-0.56624 1.92457,-2.06597 4.27681,-3.33274 2.35225,-1.26677 4.27681,-2.71048 4.27681,-3.20827 0,-0.49777 1.51216,-1.78241 3.36036,-2.85477 1.84819,-1.07234 2.2606,-1.5774 0.91646,-1.12233 -6.734,2.27982 -7.32462,1.93527 -3.10102,-1.80904 5.1307,-4.54849 4.40398,-4.67967 -3.85438,-0.69571 -6.47335,3.12286 -10.95455,4.16049 -6.40952,1.48413 11.11287,-6.54381 12.98347,-10.04388 10.26694,-19.21041 -0.69578,-2.34781 -1.30971,-6.27522 -1.36429,-8.72757 l -0.0992,-4.45883 -4.43996,2.02539 c -13.49314,6.15517 -34.37764,18.94088 -34.37764,21.04633 0,0.66343 0.87895,2.54771 1.95324,4.18727 1.86636,2.84843 2.11367,2.89808 5.55983,1.11599 4.90272,-2.53529 8.15088,-1.43924 14.54062,4.90652 2.94673,2.92645 3.0077,4.20783 0.24682,5.18694 -1.17612,0.4171 -3.10921,1.59254 -4.29577,2.61209 -2.0518,1.76303 -2.03035,1.98893 0.43816,4.61655 2.88784,3.07397 9.92008,3.80661 8.81163,0.91804 z m 452.38333,-16.00792 c -0.47243,-2.52027 -1.62538,-6.7818 -2.5621,-9.47009 -2.09946,-6.02519 -2.18523,-10.51349 -0.28075,-14.69336 1.18895,-2.60946 1.13259,-3.40574 -0.30549,-4.3156 -2.71895,-1.72028 -8.91893,-1.35852 -13.18418,0.76927 -4.65379,2.32161 -4.81252,3.69227 -0.79367,6.85349 2.97248,2.33816 10.3815,12.22827 10.3815,13.85801 0,0.44525 -2.76837,-1.67946 -6.15193,-4.72157 -7.55704,-6.79443 -16.29868,-11.80262 -20.60114,-11.80262 -1.77555,0 -5.38407,1.4649 -8.01893,3.25533 l -4.79065,3.25534 7.17219,1.78588 c 8.67489,2.16007 26.50509,10.98928 32.39046,16.0392 6.00356,5.15133 7.82167,4.9321 6.74469,-0.81328 z M 637.9916,398.52708 c 1.5559,-0.57455 4.16781,-1.04463 5.80424,-1.04463 4.169,0 3.71333,-1.59488 -1.60698,-5.6244 -2.52026,-1.9088 -8.15649,-6.80736 -12.52495,-10.88568 -12.04149,-11.24176 -19.6748,-16.02445 -31.85735,-19.96045 -7.48764,-2.41914 -8.78741,-1.99226 -7.79947,2.56153 0.47386,2.18422 1.2049,4.24626 1.62452,4.58229 0.41962,0.33604 2.55203,4.33708 4.73869,8.89121 4.32127,8.99986 12.49483,18.75122 17.38534,20.74137 7.70948,3.13728 16.9757,3.41975 24.23596,0.73876 z m -20.52844,-12.9586 c -0.0103,-1.51216 0.53117,-2.74938 1.20324,-2.74938 1.531,0 1.531,1.29678 0,3.66584 -0.95785,1.48217 -1.1881,1.30679 -1.20324,-0.91646 z m -298.62621,7.10547 c 2.6918,-1.30054 6.36927,-2.73484 8.17217,-3.18734 2.85353,-0.71618 3.27798,-1.43847 3.27798,-5.57804 0,-5.91869 -0.80351,-5.95173 -12.01748,-0.49421 -8.84114,4.30271 -10.63901,6.80812 -7.28927,10.15786 1.90609,1.90609 2.09752,1.88421 7.8566,-0.89827 z m 355.95577,-3.62827 c 3.39348,-4.76571 3.36025,-13.80815 -0.077,-20.9659 -4.06145,-8.45751 -8.90406,-13.86407 -22.27846,-24.87295 -19.48985,-16.04269 -24.1923,-21.66556 -32.46578,-38.82044 -9.01374,-18.68976 -11.39272,-21.40266 -23.30008,-26.57069 -12.18261,-5.28748 -26.82236,-7.50771 -43.99007,-6.67144 -27.02971,1.3167 -42.49267,5.1027 -65.98509,16.15606 l -6.7207,3.16214 14.05238,0.85401 c 15.76765,0.95823 28.52446,3.35616 42.48388,7.98582 16.61517,5.51044 14.27871,6.98381 -3.3816,2.13243 -6.15951,-1.69205 -12.74344,-2.19727 -29.32671,-2.25041 -18.89934,-0.0606 -22.54805,0.2645 -31.40161,2.79759 -7.89413,2.25857 -11.43871,4.07169 -16.72202,8.55362 -3.68745,3.12813 -6.74035,6.16232 -6.78421,6.74266 -0.0439,0.58033 1.70736,0.74295 3.89158,0.36137 27.87174,-4.8691 49.27705,-3.60292 67.51253,3.99355 1.34414,0.55993 4.91833,1.98197 7.94265,3.16008 7.23977,2.8202 28.03942,13.08059 37.26936,18.38482 13.32156,7.65562 21.19059,10.85371 31.57217,12.83145 10.86074,2.06901 20.27125,7.66796 33.80399,20.11226 15.73755,14.4718 19.50857,16.41043 31.99084,16.44612 8.97984,0.0257 9.49646,-0.12705 11.91398,-3.52215 z m -50.68866,-50.02612 c -1.8969,-1.68539 -14.02226,-6.05881 -22.54491,-8.13156 -14.08217,-3.42487 -23.87058,-7.71399 -28.25484,-12.38082 -2.97244,-3.16404 -1.82193,-3.8481 1.82587,-1.08564 1.25772,0.95247 7.03142,3.15719 12.83043,4.89938 20.13622,6.0495 24.89077,7.8348 31.44628,11.80785 3.62516,2.19707 6.59119,4.42838 6.59119,4.95845 0,1.23226 -0.44902,1.21623 -1.89402,-0.0677 z m -74.47762,-33.18307 c 0.41536,-0.67207 1.27263,-1.22195 1.90504,-1.22195 0.6324,0 1.14982,0.54988 1.14982,1.22195 0,0.67207 -0.85726,1.22195 -1.90503,1.22195 -1.04777,0 -1.56519,-0.54988 -1.14983,-1.22195 z m 137.30258,79.36974 c 7.72151,-4.3457 9.94193,-9.22546 9.94193,-21.84902 0,-6.01839 -0.54987,-11.28238 -1.22194,-11.69774 -0.67207,-0.41536 -1.22195,-1.82251 -1.22195,-3.12698 0,-1.30448 -0.54987,-2.37178 -1.22195,-2.37178 -0.67207,0 -1.22194,-1.09975 -1.22194,-2.44389 0,-1.34414 -0.54988,-2.44389 -1.22195,-2.44389 -0.67207,0 -1.22194,-0.5608 -1.22194,-1.24623 0,-0.68542 -1.28673,-3.29733 -2.85938,-5.80424 -1.57266,-2.50691 -3.24092,-6.10268 -3.70725,-7.9906 -2.16136,-8.75024 -19.34994,-21.43103 -36.66295,-27.04794 -11.21376,-3.6381 -26.42136,-4.42216 -26.42136,-1.3622 0,0.96844 0.54988,2.10065 1.22195,2.51601 0.67207,0.41537 1.22195,1.58909 1.22195,2.60829 0,3.327 9.40693,18.0257 15.46413,24.16332 3.25596,3.29918 11.41868,10.25804 18.13939,15.46412 14.33317,11.10297 17.46634,14.30653 22.03242,22.52742 2.71299,4.88453 3.41705,7.76311 3.51097,14.35464 0.0646,4.5347 0.31755,8.24637 0.56208,8.24814 0.24453,10e-4 2.44403,-1.12207 4.88779,-2.49743 z m -374.2882,-3.09786 c 2.17052,-1.76854 2.18186,-1.87231 0.13361,-1.22195 -1.23109,0.3909 -2.74325,0.71073 -3.36036,0.71073 -0.61709,0 -1.122,0.54988 -1.122,1.22195 0,1.7693 1.63246,1.50252 4.34875,-0.71073 z m 398.72881,-4.54087 c 1.60794,-1.48008 3.67748,-4.46049 4.59897,-6.62313 3.53965,-8.30718 1.37185,-16.30287 -6.83351,-25.20463 -4.72341,-5.12429 -12.95507,-10.29292 -14.28102,-8.96698 -0.32804,0.32805 0.62017,3.26188 2.10717,6.51964 5.41808,11.87008 6.57387,22.07769 3.71458,32.80599 -2.11032,7.91819 -1.95009,8.2216 3.20464,6.06781 2.5111,-1.0492 5.88122,-3.11861 7.48917,-4.5987 z m -408.57632,4.02965 c 0.41537,-0.67207 0.17288,-1.22194 -0.53885,-1.22194 -0.71174,0 -1.29407,0.54987 -1.29407,1.22194 0,0.67207 0.24249,1.22195 0.53886,1.22195 0.29637,0 0.8787,-0.54988 1.29406,-1.22195 z m 49.48236,-6.10369 c 6.92854,-6.47068 7.34945,-8.55608 1.26758,-6.28024 -2.03775,0.76253 -5.35464,2.003 -7.37085,2.75661 -3.6229,1.35415 -4.48581,3.62478 -2.92413,7.69446 1.09949,2.86521 1.87925,2.50494 9.0274,-4.17083 z m 111.20356,-28.1108 c 0,-0.67207 -0.51742,-1.22195 -1.14982,-1.22195 -0.63241,0 -1.48968,0.54988 -1.90504,1.22195 -0.41537,0.67207 0.10203,1.22195 1.14983,1.22195 1.04777,0 1.90503,-0.54988 1.90503,-1.22195 z m -32.10154,-15.40162 c -0.40604,-0.40604 -1.45998,-0.44944 -2.34206,-0.0964 -0.97479,0.39007 -0.68525,0.67962 0.73826,0.73825 1.28813,0.053 2.00984,-0.23575 1.6038,-0.64179 z m 20.49306,-1.70563 c 0.41536,-0.67207 0.17288,-1.22194 -0.53886,-1.22194 -0.71173,0 -1.29406,0.54987 -1.29406,1.22194 0,0.67207 0.24248,1.22195 0.53885,1.22195 0.29637,0 0.8787,-0.54988 1.29407,-1.22195 z m -41.74764,-18.32879 c -1.47468,-0.59461 -4.17847,-0.6068 -6.10973,-0.0276 -2.99345,0.89782 -2.63387,1.04281 2.64536,1.06663 4.66792,0.021 5.48546,-0.22413 3.46437,-1.03905 z M 634.44956,290.3993 c 5.55754,-1.11151 20.89393,-15.9034 27.53319,-26.55565 10.00476,-16.05197 16.15666,-38.70802 14.97566,-55.15188 -0.55425,-7.7171 -1.1037,-10.8693 -4.04689,-23.21698 -0.48059,-2.01621 -1.88483,-5.46966 -3.12053,-7.67433 -1.23571,-2.20468 -2.24674,-4.53601 -2.24674,-5.18077 0,-0.64475 -2.5533,-5.16451 -5.67398,-10.04389 -9.89138,-15.46579 -28.93711,-32.48957 -41.98193,-37.525 -2.35224,-0.90799 -5.92643,-2.32198 -7.94265,-3.1422 -7.1517,-2.90942 -13.81036,-4.54563 -15.14409,-3.72134 -1.96224,1.21273 -1.65727,3.13536 0.49732,3.13536 1.01722,0 2.80432,0.47135 3.97133,1.04746 8.05986,3.97885 11.56451,5.94025 18.31261,10.24875 4.20044,2.68187 7.63716,5.36143 7.63716,5.95456 0,1.46646 -2.12144,1.36679 -3.05486,-0.14353 -0.41537,-0.67207 -1.32134,-1.22194 -2.01329,-1.22194 -0.69194,0 2.06201,3.6233 6.11991,8.05178 4.0925,4.46625 9.11025,11.67616 11.26801,16.19079 7.93748,16.60739 9.06505,21.49848 9.0597,39.29863 l -0.005,15.27433 -4.97544,10.38654 c -2.73648,5.7126 -7.30891,13.07582 -10.16094,16.36272 -2.85204,3.28689 -6.03793,7.27712 -7.07977,8.86717 -2.23078,3.40505 -22.7084,19.98212 -24.68359,19.98212 -3.266,0 -0.81941,3.50596 5.82123,8.3418 3.94839,2.87528 8.44325,6.57364 9.98858,8.21856 2.94258,3.13225 8.6408,3.87776 16.94489,2.21694 z m -32.38781,-30.18962 c 2.12134,-1.69741 3.19665,-3.43036 2.66368,-4.29271 -1.04774,-1.69528 -7.87529,3.1126 -7.98645,5.62397 -0.0987,2.2296 1.31425,1.87621 5.32277,-1.33126 z m 18.79075,-12.76009 c 6.86381,-6.995 11.25531,-12.32818 11.25531,-13.66882 0,-1.55933 -9.77271,-6.29483 -11.18695,-5.42079 -0.59345,0.36677 -2.41276,3.29893 -4.04293,6.51591 -1.63017,3.21699 -4.37623,7.52747 -6.10235,9.57885 -2.75098,3.26935 -2.8453,3.65313 -0.76407,3.10887 1.54932,-0.40515 2.93074,0.27005 3.97563,1.94318 0.8807,1.41023 1.76542,2.56407 1.96602,2.56407 0.2006,0 2.40531,-2.07957 4.89934,-4.62127 z m 17.9895,-24.24412 c 3.1324,-5.57677 6.18032,-17.66059 5.13902,-20.37419 -0.37851,-0.98638 -3.47976,-2.46312 -6.89168,-3.28161 -6.05185,-1.45182 -7.15604,-2.32847 -5.28702,-4.19748 0.50405,-0.50406 0.91646,-1.55799 0.91646,-2.34206 0,-0.78409 1.51216,-1.5996 3.36035,-1.81226 2.89337,-0.33292 3.36035,0.0491 3.36035,2.74938 0,1.97296 0.67978,3.13603 1.83292,3.13603 2.65376,0 2.36779,-7.78645 -0.64412,-17.53788 -2.61339,-8.46115 -4.19475,-10.4936 -6.42744,-8.26091 -0.74793,0.74793 -2.77896,1.35987 -4.51342,1.35987 -2.37342,0 -3.49179,-0.89612 -4.52085,-3.62239 -1.21858,-3.22838 -1.08983,-3.71045 1.18368,-4.43204 1.82466,-0.57912 3.19533,-0.0139 4.81402,1.98508 1.56826,1.93671 2.65361,2.40416 3.53521,1.52256 1.8223,-1.8223 -2.30961,-9.28966 -9.63949,-17.42089 -5.96867,-6.62118 -6.07188,-6.67433 -9.57401,-4.93001 -6.6524,3.31339 -8.29584,3.36233 -10.70578,0.31881 -2.85465,-3.60514 -1.95153,-4.53592 4.16448,-4.29203 2.65866,0.10607 4.83296,-0.1905 4.83175,-0.65895 -0.002,-1.04667 -8.7172,-6.43611 -15.08622,-9.33001 l -4.70186,-2.13639 -3.50283,3.35593 c -1.92656,1.84575 -3.26676,3.73787 -2.97825,4.20471 0.28853,0.46683 4.18575,2.98992 8.66052,5.60686 12.5825,7.35851 22.54463,19.23059 28.50528,33.97035 3.30682,8.17721 2.87342,26.7973 -0.97019,41.68139 -0.99488,3.85261 -0.89903,5.25318 0.45254,6.6131 1.47503,1.48414 1.9249,1.26403 3.21829,-1.57465 0.92527,-2.03074 2.16326,-3.04681 3.21877,-2.64178 0.94336,0.36201 2.2638,0.65819 2.9343,0.65819 0.72913,0 0.88272,1.53151 0.38214,3.81063 -1.16185,5.28993 1.38342,4.19229 4.93308,-2.12736 z m -55.61204,-88.44144 c 0,-0.67208 -1.09975,-1.22195 -2.44389,-1.22195 -1.34414,0 -2.4439,-0.4399 -2.4439,-0.97756 0,-2.04418 3.06675,-3.91023 6.42624,-3.91023 1.92147,0 3.17535,-0.51489 2.78642,-1.14419 -0.38893,-0.6293 -1.65861,-1.14038 -2.8215,-1.13573 -1.16289,0.005 -5.96347,-1.08576 -10.66797,-2.42314 -4.70449,-1.33737 -11.303,-2.79922 -14.66335,-3.24853 -9.51175,-1.27185 -35.20404,-6.55316 -42.04273,-8.64234 -1.98387,-0.60606 -2.67498,-0.46872 -2.12439,0.42214 0.44883,0.72622 2.59684,1.68271 4.77337,2.12551 2.17652,0.44281 8.08138,2.13619 13.12191,3.76308 5.04052,1.62689 11.08916,3.56196 13.4414,4.30018 8.97111,2.81543 31.21098,11.25141 32.32048,12.25972 1.58315,1.43877 4.33791,1.33274 4.33791,-0.16696 z"
         id="path2" />
    </g>
  </g>
</svg>
