<svg xmlns="http://www.w3.org/2000/svg" viewBox="0 0 24 24" fill="#FF9900">
  <path d="M6.763 10.036c0 .646.062 1.167.173 1.556.117.389.29.728.511 1.011.221.283.49.537.807.762.317.225.679.435 1.086.629.728.347 1.257.742 1.587 1.185.33.443.495.969.495 1.577 0 .389-.062.746-.186 1.071-.124.325-.31.608-.558.849-.248.241-.558.428-.929.561-.371.133-.803.2-1.295.2-.467 0-.9-.067-1.3-.2-.4-.133-.746-.325-1.038-.576-.292-.251-.528-.558-.708-.921-.18-.363-.278-.767-.295-1.212H4.5c.017.629.129 1.207.336 1.735.207.528.498.99.873 1.387.375.397.828.708 1.359.933.531.225 1.129.337 1.794.337.629 0 1.196-.108 1.702-.325.506-.217.937-.515 1.291-.894.354-.379.625-.823.812-1.332.187-.509.28-1.063.28-1.662 0-.528-.075-.99-.225-1.387-.15-.397-.363-.746-.638-1.046-.275-.3-.608-.562-.999-.786-.391-.224-.836-.424-1.335-.6-.629-.275-1.086-.562-1.371-.861-.285-.299-.428-.679-.428-1.14 0-.354.062-.671.186-.95.124-.279.29-.515.498-.708.208-.193.454-.342.738-.446.284-.104.595-.156.933-.156.321 0 .617.048.887.144.27.096.506.237.708.424.202.187.363.415.483.683.12.268.187.578.2.93h1.5c-.008-.545-.108-1.042-.3-1.491-.192-.449-.458-.836-.799-1.162-.341-.326-.746-.579-1.216-.759-.47-.18-.99-.27-1.56-.27-.612 0-1.167.09-1.665.27-.498.18-.925.435-1.282.765-.357.33-.633.724-.828 1.183-.195.459-.292.974-.292 1.545zm8.918 7.464h1.5v-3.945h4.5v-1.35h-4.5V8.25h5.1V6.9h-6.6v10.6zm-5.1-6.6H9.3v2.25h1.281v-2.25z"/>
</svg>
